{
  "nbformat": 4,
  "nbformat_minor": 0,
  "metadata": {
    "colab": {
      "provenance": [],
      "authorship_tag": "ABX9TyNneR6CMDiU11ZH6xh3WvFr",
      "include_colab_link": true
    },
    "kernelspec": {
      "name": "python3",
      "display_name": "Python 3"
    },
    "language_info": {
      "name": "python"
    }
  },
  "cells": [
    {
      "cell_type": "markdown",
      "metadata": {
        "id": "view-in-github",
        "colab_type": "text"
      },
      "source": [
        "<a href=\"https://colab.research.google.com/github/JeremyKrick/ComposerNet/blob/jeremy_dev/ComposerNet_jeremy.ipynb\" target=\"_parent\"><img src=\"https://colab.research.google.com/assets/colab-badge.svg\" alt=\"Open In Colab\"/></a>"
      ]
    },
    {
      "cell_type": "code",
      "execution_count": 10,
      "metadata": {
        "colab": {
          "base_uri": "https://localhost:8080/"
        },
        "id": "lSLLlQXDelOO",
        "outputId": "fb027dd0-6475-4b23-cdff-ce85c5ae8a88"
      },
      "outputs": [
        {
          "output_type": "stream",
          "name": "stdout",
          "text": [
            "Requirement already satisfied: mido in /usr/local/lib/python3.10/dist-packages (1.2.10)\n"
          ]
        }
      ],
      "source": [
        "#@title Import Libraries\n",
        "!pip install mido\n",
        "#import mido # Read MIDI file's\n",
        "import tensorflow as tf\n",
        "import numpy as np\n",
        "import pandas as pd\n",
        "import matplotlib.pyplot as plt\n",
        "from sklearn.preprocessing import MinMaxScaler\n",
        "from sklearn.model_selection import train_test_split\n",
        "from mido import MidiFile"
      ]
    },
    {
      "cell_type": "code",
      "source": [
        "#@title Mounting Google Drive to Colab\n",
        "from google.colab import drive\n",
        "drive.mount('/content/drive')"
      ],
      "metadata": {
        "colab": {
          "base_uri": "https://localhost:8080/"
        },
        "id": "9J6qah2gexPy",
        "outputId": "37de6ce4-1ca4-4a26-969d-4c22d976c7da"
      },
      "execution_count": 12,
      "outputs": [
        {
          "output_type": "stream",
          "name": "stdout",
          "text": [
            "Drive already mounted at /content/drive; to attempt to forcibly remount, call drive.mount(\"/content/drive\", force_remount=True).\n"
          ]
        }
      ]
    },
    {
      "cell_type": "code",
      "source": [
        "#@title Read MIDI File (Musical Instrument Digital Interface)\n",
        "mid = MidiFile('/content/drive/MyDrive/AAI 511/Composer_Dataset/NN_midi_files_extended/train/bach/bach362.mid')\n",
        "\n",
        "for i, track in enumerate(mid.tracks):\n",
        "    print('Track {}: {}'.format(i, track.name))\n",
        "    for msg in track:\n",
        "        print(msg)"
      ],
      "metadata": {
        "colab": {
          "base_uri": "https://localhost:8080/"
        },
        "id": "jiI6KOUsnN69",
        "outputId": "b135563e-d61a-492d-cf4e-c557e5c09985"
      },
      "execution_count": 15,
      "outputs": [
        {
          "output_type": "stream",
          "name": "stdout",
          "text": [
            "Track 0: \n",
            "MetaMessage('set_tempo', tempo=500000, time=0)\n",
            "MetaMessage('time_signature', numerator=4, denominator=4, clocks_per_click=24, notated_32nd_notes_per_beat=8, time=0)\n",
            "MetaMessage('end_of_track', time=95232)\n",
            "Track 1: Track 1\n",
            "MetaMessage('text', text='harpsichord: John Sankey', time=0)\n",
            "program_change channel=0 program=6 time=0\n",
            "pitchwheel channel=0 pitch=0 time=0\n",
            "program_change channel=1 program=6 time=0\n",
            "pitchwheel channel=1 pitch=-400 time=0\n",
            "program_change channel=2 program=6 time=0\n",
            "pitchwheel channel=2 pitch=-316 time=0\n",
            "program_change channel=3 program=6 time=0\n",
            "pitchwheel channel=3 pitch=-240 time=0\n",
            "program_change channel=4 program=6 time=0\n",
            "pitchwheel channel=4 pitch=-400 time=0\n",
            "program_change channel=5 program=6 time=0\n",
            "pitchwheel channel=5 pitch=-80 time=0\n",
            "program_change channel=6 program=6 time=0\n",
            "pitchwheel channel=6 pitch=-480 time=0\n",
            "program_change channel=7 program=6 time=0\n",
            "pitchwheel channel=7 pitch=-155 time=0\n",
            "program_change channel=8 program=6 time=0\n",
            "pitchwheel channel=8 pitch=-320 time=0\n",
            "program_change channel=10 program=6 time=0\n",
            "pitchwheel channel=10 pitch=-480 time=0\n",
            "program_change channel=11 program=6 time=0\n",
            "pitchwheel channel=11 pitch=-160 time=0\n",
            "program_change channel=12 program=6 time=0\n",
            "pitchwheel channel=12 pitch=-320 time=0\n",
            "MetaMessage('track_name', name='Track 1', time=0)\n",
            "note_on channel=3 note=51 velocity=127 time=50\n",
            "note_off channel=3 note=51 velocity=127 time=180\n",
            "note_on channel=7 note=55 velocity=127 time=23\n",
            "note_off channel=7 note=55 velocity=127 time=180\n",
            "note_on channel=11 note=58 velocity=127 time=18\n",
            "note_off channel=11 note=58 velocity=127 time=180\n",
            "note_on channel=3 note=63 velocity=127 time=18\n",
            "note_on channel=11 note=70 velocity=127 time=596\n",
            "note_off channel=11 note=70 velocity=127 time=192\n",
            "note_off channel=3 note=63 velocity=127 time=4\n",
            "note_on channel=3 note=75 velocity=127 time=2\n",
            "note_on channel=0 note=60 velocity=127 time=0\n",
            "note_off channel=3 note=75 velocity=127 time=594\n",
            "note_on channel=5 note=77 velocity=127 time=2\n",
            "note_off channel=0 note=60 velocity=127 time=190\n",
            "note_off channel=5 note=77 velocity=127 time=2\n",
            "note_on channel=2 note=74 velocity=127 time=6\n",
            "note_on channel=11 note=46 velocity=127 time=199\n",
            "note_off channel=11 note=46 velocity=127 time=192\n",
            "note_on channel=2 note=50 velocity=127 time=6\n",
            "note_off channel=2 note=50 velocity=127 time=192\n",
            "note_on channel=5 note=53 velocity=127 time=6\n",
            "note_off channel=5 note=53 velocity=127 time=192\n",
            "note_on channel=11 note=58 velocity=127 time=6\n",
            "note_off channel=2 note=74 velocity=127 time=530\n",
            "note_on channel=0 note=72 velocity=127 time=66\n",
            "note_on channel=5 note=65 velocity=127 time=0\n",
            "note_off channel=5 note=65 velocity=127 time=192\n",
            "note_off channel=0 note=72 velocity=127 time=0\n",
            "note_off channel=11 note=58 velocity=127 time=4\n",
            "note_on channel=1 note=73 velocity=127 time=2\n",
            "note_on channel=11 note=70 velocity=127 time=0\n",
            "note_on channel=7 note=55 velocity=127 time=0\n",
            "note_off channel=11 note=70 velocity=127 time=594\n",
            "note_off channel=1 note=73 velocity=127 time=0\n",
            "note_on channel=3 note=75 velocity=127 time=2\n",
            "note_on channel=0 note=72 velocity=127 time=0\n",
            "note_off channel=7 note=55 velocity=127 time=190\n",
            "note_off channel=0 note=72 velocity=127 time=2\n",
            "note_off channel=3 note=75 velocity=127 time=0\n",
            "note_on channel=0 note=72 velocity=127 time=6\n",
            "note_on channel=8 note=68 velocity=127 time=0\n",
            "note_on channel=8 note=44 velocity=127 time=199\n",
            "note_off channel=8 note=44 velocity=127 time=192\n",
            "note_on channel=0 note=48 velocity=127 time=6\n",
            "note_off channel=0 note=48 velocity=127 time=192\n",
            "note_on channel=3 note=51 velocity=127 time=6\n",
            "note_off channel=3 note=51 velocity=127 time=192\n",
            "note_on channel=8 note=56 velocity=127 time=6\n",
            "note_off channel=8 note=68 velocity=127 time=530\n",
            "note_off channel=0 note=72 velocity=127 time=0\n",
            "note_on channel=0 note=72 velocity=127 time=66\n",
            "note_on channel=7 note=67 velocity=127 time=0\n",
            "note_off channel=7 note=67 velocity=127 time=192\n",
            "note_off channel=0 note=72 velocity=127 time=0\n",
            "note_off channel=8 note=56 velocity=127 time=4\n",
            "note_on channel=5 note=77 velocity=127 time=2\n",
            "note_on channel=8 note=68 velocity=127 time=0\n",
            "note_on channel=5 note=53 velocity=127 time=0\n",
            "note_off channel=8 note=68 velocity=127 time=594\n",
            "note_off channel=5 note=77 velocity=127 time=0\n",
            "note_on channel=7 note=79 velocity=127 time=2\n",
            "note_on channel=11 note=70 velocity=127 time=0\n",
            "note_off channel=5 note=53 velocity=127 time=190\n",
            "note_off channel=11 note=70 velocity=127 time=2\n",
            "note_off channel=7 note=79 velocity=127 time=0\n",
            "note_on channel=3 note=75 velocity=127 time=6\n",
            "note_on channel=7 note=67 velocity=127 time=0\n",
            "note_on channel=0 note=48 velocity=127 time=199\n",
            "note_off channel=0 note=48 velocity=127 time=192\n",
            "note_on channel=3 note=51 velocity=127 time=6\n",
            "note_off channel=3 note=51 velocity=127 time=192\n",
            "note_on channel=7 note=55 velocity=127 time=6\n",
            "note_off channel=7 note=55 velocity=127 time=192\n",
            "note_on channel=0 note=60 velocity=127 time=6\n",
            "note_off channel=7 note=67 velocity=127 time=530\n",
            "note_off channel=3 note=75 velocity=127 time=0\n",
            "note_on channel=2 note=74 velocity=127 time=66\n",
            "note_on channel=7 note=67 velocity=127 time=0\n",
            "note_off channel=7 note=67 velocity=127 time=192\n",
            "note_off channel=2 note=74 velocity=127 time=0\n",
            "note_off channel=0 note=60 velocity=127 time=4\n",
            "note_on channel=3 note=75 velocity=127 time=2\n",
            "note_on channel=0 note=72 velocity=127 time=0\n",
            "note_on channel=10 note=57 velocity=127 time=0\n",
            "note_off channel=0 note=72 velocity=127 time=594\n",
            "note_off channel=3 note=75 velocity=127 time=0\n",
            "note_on channel=5 note=77 velocity=127 time=2\n",
            "note_on channel=2 note=74 velocity=127 time=0\n",
            "note_off channel=10 note=57 velocity=127 time=190\n",
            "note_off channel=2 note=74 velocity=127 time=2\n",
            "note_off channel=5 note=77 velocity=127 time=0\n",
            "note_on channel=2 note=74 velocity=127 time=6\n",
            "note_on channel=11 note=70 velocity=127 time=0\n",
            "note_on channel=11 note=46 velocity=127 time=199\n",
            "note_off channel=11 note=46 velocity=127 time=192\n",
            "note_on channel=2 note=50 velocity=127 time=6\n",
            "note_off channel=2 note=50 velocity=127 time=192\n",
            "note_on channel=5 note=53 velocity=127 time=6\n",
            "note_off channel=5 note=53 velocity=127 time=192\n",
            "note_on channel=11 note=58 velocity=127 time=6\n",
            "note_off channel=2 note=74 velocity=127 time=530\n",
            "note_on channel=2 note=74 velocity=127 time=66\n",
            "note_off channel=2 note=74 velocity=127 time=192\n",
            "note_off channel=11 note=58 velocity=127 time=4\n",
            "note_on channel=7 note=79 velocity=127 time=2\n",
            "note_on channel=3 note=51 velocity=127 time=0\n",
            "note_off channel=7 note=79 velocity=127 time=594\n",
            "note_on channel=7 note=79 velocity=127 time=2\n",
            "note_off channel=3 note=51 velocity=127 time=190\n",
            "note_off channel=7 note=79 velocity=127 time=2\n",
            "note_on channel=0 note=72 velocity=127 time=6\n",
            "note_on channel=8 note=44 velocity=127 time=199\n",
            "note_off channel=8 note=44 velocity=127 time=192\n",
            "note_on channel=0 note=48 velocity=127 time=6\n",
            "note_off channel=0 note=48 velocity=127 time=192\n",
            "note_on channel=3 note=51 velocity=127 time=6\n",
            "note_off channel=3 note=51 velocity=127 time=192\n",
            "note_off channel=11 note=70 velocity=127 time=4\n",
            "note_on channel=8 note=68 velocity=127 time=2\n",
            "note_on channel=8 note=56 velocity=127 time=0\n",
            "note_off channel=0 note=72 velocity=127 time=530\n",
            "note_on channel=0 note=72 velocity=127 time=66\n",
            "note_off channel=0 note=72 velocity=127 time=192\n",
            "note_off channel=8 note=56 velocity=127 time=4\n",
            "note_on channel=5 note=77 velocity=127 time=2\n",
            "note_on channel=2 note=50 velocity=127 time=0\n",
            "note_off channel=5 note=77 velocity=127 time=594\n",
            "note_on channel=5 note=77 velocity=127 time=2\n",
            "note_off channel=2 note=50 velocity=127 time=190\n",
            "note_off channel=5 note=77 velocity=127 time=2\n",
            "note_on channel=11 note=70 velocity=127 time=6\n",
            "note_on channel=7 note=43 velocity=127 time=199\n",
            "note_off channel=7 note=43 velocity=127 time=192\n",
            "note_on channel=11 note=46 velocity=127 time=6\n",
            "note_off channel=11 note=46 velocity=127 time=192\n",
            "note_on channel=2 note=50 velocity=127 time=6\n",
            "note_off channel=2 note=50 velocity=127 time=192\n",
            "note_off channel=11 note=70 velocity=127 time=2\n",
            "note_on channel=3 note=75 velocity=127 time=4\n",
            "note_on channel=7 note=55 velocity=127 time=0\n",
            "note_off channel=8 note=68 velocity=127 time=594\n",
            "note_on channel=7 note=67 velocity=127 time=2\n",
            "note_off channel=7 note=67 velocity=127 time=192\n",
            "note_off channel=7 note=55 velocity=127 time=4\n",
            "note_on channel=0 note=72 velocity=127 time=2\n",
            "note_on channel=8 note=56 velocity=127 time=0\n",
            "note_off channel=0 note=72 velocity=127 time=594\n",
            "note_on channel=0 note=72 velocity=127 time=2\n",
            "note_off channel=8 note=56 velocity=127 time=190\n",
            "note_off channel=0 note=72 velocity=127 time=2\n",
            "note_on channel=5 note=65 velocity=127 time=6\n",
            "note_on channel=11 note=46 velocity=127 time=199\n",
            "note_off channel=11 note=46 velocity=127 time=192\n",
            "note_on channel=5 note=53 velocity=127 time=6\n",
            "note_off channel=5 note=53 velocity=127 time=192\n",
            "note_on channel=8 note=56 velocity=127 time=6\n",
            "note_off channel=8 note=56 velocity=127 time=192\n",
            "note_off channel=3 note=75 velocity=127 time=4\n",
            "note_on channel=2 note=74 velocity=127 time=2\n",
            "note_on channel=11 note=58 velocity=127 time=0\n",
            "note_off channel=5 note=65 velocity=127 time=530\n",
            "note_on channel=5 note=65 velocity=127 time=66\n",
            "note_off channel=5 note=65 velocity=127 time=192\n",
            "note_off channel=11 note=58 velocity=127 time=4\n",
            "note_on channel=11 note=70 velocity=127 time=2\n",
            "note_on channel=11 note=46 velocity=127 time=0\n",
            "note_off channel=11 note=70 velocity=127 time=594\n",
            "note_on channel=0 note=72 velocity=127 time=2\n",
            "note_off channel=11 note=46 velocity=127 time=190\n",
            "note_off channel=0 note=72 velocity=127 time=2\n",
            "note_off channel=2 note=74 velocity=127 time=4\n",
            "note_on channel=3 note=75 velocity=127 time=2\n",
            "note_on channel=7 note=67 velocity=127 time=0\n",
            "note_on channel=3 note=39 velocity=127 time=199\n",
            "note_off channel=3 note=39 velocity=127 time=192\n",
            "note_on channel=7 note=43 velocity=127 time=6\n",
            "note_off channel=7 note=43 velocity=127 time=192\n",
            "note_on channel=11 note=46 velocity=127 time=6\n",
            "note_off channel=11 note=46 velocity=127 time=192\n",
            "note_on channel=3 note=51 velocity=127 time=6\n",
            "note_off channel=7 note=67 velocity=127 time=530\n",
            "note_off channel=3 note=75 velocity=127 time=0\n",
            "note_on channel=7 note=79 velocity=127 time=66\n",
            "note_off channel=7 note=79 velocity=127 time=192\n",
            "note_off channel=3 note=51 velocity=127 time=4\n",
            "note_on channel=0 note=72 velocity=127 time=2\n",
            "note_on channel=0 note=48 velocity=127 time=0\n",
            "note_off channel=0 note=72 velocity=127 time=594\n",
            "note_on channel=0 note=72 velocity=127 time=2\n",
            "note_off channel=0 note=48 velocity=127 time=190\n",
            "note_off channel=0 note=72 velocity=127 time=2\n",
            "note_on channel=0 note=72 velocity=127 time=6\n",
            "note_on channel=8 note=44 velocity=127 time=199\n",
            "note_off channel=8 note=44 velocity=127 time=192\n",
            "note_on channel=0 note=48 velocity=127 time=6\n",
            "note_off channel=0 note=48 velocity=127 time=192\n",
            "note_on channel=3 note=51 velocity=127 time=6\n",
            "note_off channel=3 note=51 velocity=127 time=192\n",
            "note_on channel=8 note=56 velocity=127 time=6\n",
            "note_on channel=8 note=80 velocity=127 time=596\n",
            "note_off channel=8 note=80 velocity=127 time=192\n",
            "note_off channel=8 note=56 velocity=127 time=4\n",
            "note_on channel=2 note=74 velocity=127 time=2\n",
            "note_on channel=5 note=53 velocity=127 time=0\n",
            "note_off channel=2 note=74 velocity=127 time=594\n",
            "note_on channel=2 note=74 velocity=127 time=2\n",
            "note_off channel=5 note=53 velocity=127 time=190\n",
            "note_off channel=2 note=74 velocity=127 time=2\n",
            "note_on channel=2 note=74 velocity=127 time=6\n",
            "note_on channel=5 note=53 velocity=127 time=199\n",
            "note_off channel=5 note=53 velocity=127 time=192\n",
            "note_on channel=8 note=56 velocity=127 time=6\n",
            "note_off channel=8 note=56 velocity=127 time=192\n",
            "note_on channel=0 note=60 velocity=127 time=6\n",
            "note_off channel=0 note=60 velocity=127 time=192\n",
            "note_off channel=0 note=72 velocity=127 time=4\n",
            "note_on channel=12 note=71 velocity=127 time=2\n",
            "note_on channel=5 note=65 velocity=127 time=0\n",
            "note_off channel=2 note=74 velocity=127 time=530\n",
            "note_off channel=12 note=71 velocity=127 time=64\n",
            "note_on channel=3 note=75 velocity=127 time=2\n",
            "note_on channel=0 note=72 velocity=127 time=0\n",
            "note_off channel=5 note=65 velocity=127 time=190\n",
            "note_off channel=0 note=72 velocity=127 time=2\n",
            "note_off channel=3 note=75 velocity=127 time=0\n",
            "note_on channel=5 note=77 velocity=127 time=6\n",
            "note_on channel=2 note=74 velocity=127 time=0\n",
            "note_on channel=12 note=59 velocity=127 time=199\n",
            "note_off channel=12 note=59 velocity=127 time=192\n",
            "note_on channel=10 note=57 velocity=127 time=6\n",
            "note_off channel=10 note=57 velocity=127 time=192\n",
            "note_on channel=7 note=55 velocity=127 time=6\n",
            "note_off channel=7 note=55 velocity=127 time=192\n",
            "note_on channel=0 note=60 velocity=127 time=6\n",
            "note_off channel=0 note=60 velocity=127 time=192\n",
            "note_on channel=7 note=55 velocity=127 time=6\n",
            "note_off channel=7 note=55 velocity=127 time=192\n",
            "note_on channel=8 note=56 velocity=127 time=6\n",
            "note_off channel=2 note=74 velocity=127 time=132\n",
            "note_off channel=5 note=77 velocity=127 time=0\n",
            "note_off channel=8 note=56 velocity=127 time=60\n",
            "note_on channel=3 note=75 velocity=127 time=6\n",
            "note_on channel=0 note=72 velocity=127 time=0\n",
            "note_on channel=5 note=53 velocity=127 time=0\n",
            "note_off channel=5 note=53 velocity=127 time=192\n",
            "note_off channel=0 note=72 velocity=127 time=0\n",
            "note_off channel=3 note=75 velocity=127 time=0\n",
            "note_on channel=3 note=75 velocity=127 time=6\n",
            "note_on channel=0 note=72 velocity=127 time=0\n",
            "note_on channel=7 note=55 velocity=127 time=0\n",
            "note_off channel=7 note=55 velocity=127 time=792\n",
            "note_off channel=0 note=72 velocity=127 time=0\n",
            "note_off channel=3 note=75 velocity=127 time=0\n",
            "note_on channel=2 note=74 velocity=127 time=2\n",
            "note_on channel=12 note=71 velocity=127 time=0\n",
            "note_on channel=7 note=43 velocity=127 time=0\n",
            "note_off channel=2 note=74 velocity=127 time=594\n",
            "note_on channel=0 note=72 velocity=127 time=2\n",
            "note_off channel=7 note=43 velocity=127 time=190\n",
            "note_off channel=0 note=72 velocity=127 time=2\n",
            "note_off channel=12 note=71 velocity=127 time=4\n",
            "note_on channel=0 note=72 velocity=127 time=2\n",
            "note_on channel=0 note=36 velocity=127 time=199\n",
            "note_off channel=0 note=36 velocity=127 time=192\n",
            "note_on channel=3 note=39 velocity=127 time=6\n",
            "note_off channel=3 note=39 velocity=127 time=192\n",
            "note_on channel=7 note=43 velocity=127 time=6\n",
            "note_off channel=7 note=43 velocity=127 time=192\n",
            "note_on channel=0 note=48 velocity=127 time=6\n",
            "note_off channel=0 note=72 velocity=127 time=395\n",
            "note_on channel=7 note=67 velocity=127 time=201\n",
            "note_off channel=7 note=67 velocity=127 time=192\n",
            "note_off channel=0 note=48 velocity=127 time=4\n",
            "note_on channel=0 note=72 velocity=127 time=2\n",
            "note_on channel=3 note=39 velocity=127 time=0\n",
            "note_off channel=0 note=72 velocity=127 time=594\n",
            "note_on channel=2 note=74 velocity=127 time=2\n",
            "note_off channel=3 note=39 velocity=127 time=190\n",
            "note_off channel=2 note=74 velocity=127 time=2\n",
            "note_on channel=10 note=69 velocity=127 time=6\n",
            "note_on channel=5 note=41 velocity=127 time=199\n",
            "note_off channel=5 note=41 velocity=127 time=192\n",
            "note_on channel=10 note=45 velocity=127 time=6\n",
            "note_off channel=10 note=45 velocity=127 time=192\n",
            "note_on channel=0 note=48 velocity=127 time=6\n",
            "note_off channel=0 note=48 velocity=127 time=192\n",
            "note_on channel=5 note=53 velocity=127 time=6\n",
            "note_off channel=10 note=69 velocity=127 time=530\n",
            "note_on channel=0 note=72 velocity=127 time=66\n",
            "note_on channel=11 note=70 velocity=127 time=0\n",
            "note_off channel=11 note=70 velocity=127 time=192\n",
            "note_off channel=0 note=72 velocity=127 time=0\n",
            "note_off channel=5 note=53 velocity=127 time=4\n",
            "note_on channel=5 note=77 velocity=127 time=2\n",
            "note_on channel=0 note=72 velocity=127 time=0\n",
            "note_on channel=10 note=45 velocity=127 time=0\n",
            "note_off channel=5 note=77 velocity=127 time=594\n",
            "note_on channel=7 note=79 velocity=127 time=2\n",
            "note_off channel=10 note=45 velocity=127 time=190\n",
            "note_off channel=7 note=79 velocity=127 time=2\n",
            "note_on channel=2 note=74 velocity=127 time=6\n",
            "note_on channel=11 note=46 velocity=127 time=199\n",
            "note_off channel=11 note=46 velocity=127 time=192\n",
            "note_on channel=2 note=50 velocity=127 time=6\n",
            "note_off channel=2 note=50 velocity=127 time=192\n",
            "note_on channel=5 note=53 velocity=127 time=6\n",
            "note_off channel=5 note=53 velocity=127 time=192\n",
            "note_off channel=0 note=72 velocity=127 time=4\n",
            "note_on channel=11 note=70 velocity=127 time=2\n",
            "note_on channel=11 note=58 velocity=127 time=0\n",
            "note_off channel=2 note=74 velocity=127 time=530\n",
            "note_off channel=11 note=70 velocity=127 time=64\n",
            "note_on channel=3 note=75 velocity=127 time=2\n",
            "note_on channel=0 note=72 velocity=127 time=0\n",
            "note_off channel=0 note=72 velocity=127 time=192\n",
            "note_off channel=3 note=75 velocity=127 time=0\n",
            "note_off channel=11 note=58 velocity=127 time=4\n",
            "note_on channel=5 note=77 velocity=127 time=2\n",
            "note_on channel=2 note=74 velocity=127 time=0\n",
            "note_on channel=7 note=55 velocity=127 time=0\n",
            "note_off channel=2 note=74 velocity=127 time=594\n",
            "note_off channel=5 note=77 velocity=127 time=0\n",
            "note_on channel=7 note=79 velocity=127 time=2\n",
            "note_on channel=3 note=75 velocity=127 time=0\n",
            "note_off channel=7 note=55 velocity=127 time=190\n",
            "note_off channel=3 note=75 velocity=127 time=2\n",
            "note_off channel=7 note=79 velocity=127 time=0\n",
            "note_on channel=3 note=75 velocity=127 time=6\n",
            "note_on channel=0 note=72 velocity=127 time=0\n",
            "note_on channel=7 note=55 velocity=127 time=199\n",
            "note_off channel=7 note=55 velocity=127 time=192\n",
            "note_on channel=10 note=57 velocity=127 time=6\n",
            "note_off channel=10 note=57 velocity=127 time=192\n",
            "note_off channel=0 note=72 velocity=127 time=4\n",
            "note_off channel=3 note=75 velocity=127 time=0\n",
            "note_on channel=2 note=74 velocity=127 time=2\n",
            "note_on channel=11 note=70 velocity=127 time=0\n",
            "note_on channel=11 note=58 velocity=127 time=0\n",
            "note_off channel=11 note=58 velocity=127 time=192\n",
            "note_off channel=11 note=70 velocity=127 time=0\n",
            "note_off channel=2 note=74 velocity=127 time=0\n",
            "note_on channel=2 note=74 velocity=127 time=6\n",
            "note_on channel=11 note=70 velocity=127 time=0\n",
            "note_on channel=5 note=53 velocity=127 time=0\n",
            "note_off channel=5 note=53 velocity=127 time=792\n",
            "note_off channel=11 note=70 velocity=127 time=0\n",
            "note_off channel=2 note=74 velocity=127 time=0\n",
            "note_on channel=0 note=72 velocity=127 time=2\n",
            "note_on channel=10 note=69 velocity=127 time=0\n",
            "note_on channel=5 note=41 velocity=127 time=0\n",
            "note_off channel=0 note=72 velocity=127 time=594\n",
            "note_on channel=11 note=70 velocity=127 time=2\n",
            "note_off channel=5 note=41 velocity=127 time=190\n",
            "note_off channel=10 note=69 velocity=127 time=0\n",
            "note_off channel=11 note=70 velocity=127 time=2\n",
            "note_on channel=11 note=70 velocity=127 time=6\n",
            "note_on channel=11 note=46 velocity=127 time=199\n",
            "note_off channel=11 note=46 velocity=127 time=192\n",
            "note_on channel=2 note=50 velocity=127 time=6\n",
            "note_off channel=2 note=50 velocity=127 time=192\n",
            "note_on channel=5 note=53 velocity=127 time=6\n",
            "note_off channel=5 note=53 velocity=127 time=192\n",
            "note_on channel=11 note=58 velocity=127 time=6\n",
            "note_off channel=11 note=70 velocity=127 time=395\n",
            "note_on channel=11 note=82 velocity=127 time=201\n",
            "note_off channel=11 note=82 velocity=127 time=192\n",
            "note_off channel=11 note=58 velocity=127 time=4\n",
            "note_on channel=8 note=80 velocity=127 time=2\n",
            "note_on channel=2 note=50 velocity=127 time=0\n",
            "note_off channel=8 note=80 velocity=127 time=594\n",
            "note_on channel=11 note=82 velocity=127 time=2\n",
            "note_off channel=2 note=50 velocity=127 time=190\n",
            "note_off channel=11 note=82 velocity=127 time=2\n",
            "note_on channel=7 note=79 velocity=127 time=6\n",
            "note_on channel=3 note=51 velocity=127 time=199\n",
            "note_off channel=3 note=51 velocity=127 time=192\n",
            "note_on channel=7 note=55 velocity=127 time=6\n",
            "note_off channel=7 note=55 velocity=127 time=192\n",
            "note_on channel=11 note=58 velocity=127 time=6\n",
            "note_off channel=11 note=58 velocity=127 time=192\n",
            "note_on channel=3 note=63 velocity=127 time=6\n",
            "note_off channel=7 note=79 velocity=127 time=530\n",
            "note_on channel=8 note=80 velocity=127 time=66\n",
            "note_on channel=3 note=75 velocity=127 time=0\n",
            "note_off channel=3 note=75 velocity=127 time=192\n",
            "note_off channel=8 note=80 velocity=127 time=0\n",
            "note_off channel=3 note=63 velocity=127 time=4\n",
            "note_on channel=11 note=82 velocity=127 time=2\n",
            "note_on channel=1 note=73 velocity=127 time=0\n",
            "note_on channel=7 note=55 velocity=127 time=0\n",
            "note_off channel=1 note=73 velocity=127 time=594\n",
            "note_on channel=3 note=75 velocity=127 time=2\n",
            "note_off channel=7 note=55 velocity=127 time=190\n",
            "note_off channel=3 note=75 velocity=127 time=2\n",
            "note_on channel=0 note=72 velocity=127 time=6\n",
            "note_on channel=8 note=44 velocity=127 time=199\n",
            "note_off channel=8 note=44 velocity=127 time=192\n",
            "note_on channel=0 note=48 velocity=127 time=6\n",
            "note_off channel=11 note=82 velocity=127 time=132\n",
            "note_off channel=0 note=48 velocity=127 time=60\n",
            "note_on channel=7 note=79 velocity=127 time=6\n",
            "note_on channel=3 note=51 velocity=127 time=0\n",
            "note_off channel=3 note=51 velocity=127 time=192\n",
            "note_off channel=7 note=79 velocity=127 time=0\n",
            "note_on channel=4 note=76 velocity=127 time=6\n",
            "note_on channel=8 note=56 velocity=127 time=0\n",
            "note_off channel=0 note=72 velocity=127 time=530\n",
            "note_off channel=4 note=76 velocity=127 time=64\n",
            "note_on channel=5 note=77 velocity=127 time=2\n",
            "note_on channel=1 note=73 velocity=127 time=0\n",
            "note_off channel=1 note=73 velocity=127 time=192\n",
            "note_off channel=5 note=77 velocity=127 time=0\n",
            "note_off channel=8 note=56 velocity=127 time=4\n",
            "note_on channel=7 note=79 velocity=127 time=2\n",
            "note_on channel=11 note=70 velocity=127 time=0\n",
            "note_on channel=4 note=52 velocity=127 time=0\n",
            "note_off channel=11 note=70 velocity=127 time=594\n",
            "note_on channel=0 note=72 velocity=127 time=2\n",
            "note_off channel=4 note=52 velocity=127 time=190\n",
            "note_off channel=0 note=72 velocity=127 time=2\n",
            "note_on channel=8 note=68 velocity=127 time=6\n",
            "note_on channel=5 note=41 velocity=127 time=199\n",
            "note_off channel=5 note=41 velocity=127 time=192\n",
            "note_on channel=8 note=44 velocity=127 time=6\n",
            "note_off channel=7 note=79 velocity=127 time=132\n",
            "note_off channel=8 note=44 velocity=127 time=60\n",
            "note_on channel=5 note=77 velocity=127 time=6\n",
            "note_on channel=0 note=48 velocity=127 time=0\n",
            "note_off channel=0 note=48 velocity=127 time=192\n",
            "note_off channel=5 note=77 velocity=127 time=0\n",
            "note_on channel=1 note=73 velocity=127 time=6\n",
            "note_on channel=5 note=53 velocity=127 time=0\n",
            "note_off channel=8 note=68 velocity=127 time=530\n",
            "note_off channel=1 note=73 velocity=127 time=64\n",
            "note_on channel=0 note=72 velocity=127 time=2\n",
            "note_on channel=7 note=67 velocity=127 time=0\n",
            "note_off channel=7 note=67 velocity=127 time=192\n",
            "note_off channel=0 note=72 velocity=127 time=0\n",
            "note_off channel=5 note=53 velocity=127 time=4\n",
            "note_on channel=5 note=77 velocity=127 time=2\n",
            "note_on channel=8 note=68 velocity=127 time=0\n",
            "note_on channel=1 note=49 velocity=127 time=0\n",
            "note_off channel=8 note=68 velocity=127 time=594\n",
            "note_off channel=5 note=77 velocity=127 time=0\n",
            "note_on channel=7 note=79 velocity=127 time=2\n",
            "note_on channel=11 note=70 velocity=127 time=0\n",
            "note_off channel=1 note=49 velocity=127 time=190\n",
            "note_off channel=11 note=70 velocity=127 time=2\n",
            "note_off channel=7 note=79 velocity=127 time=0\n",
            "note_on channel=4 note=76 velocity=127 time=6\n",
            "note_on channel=0 note=72 velocity=127 time=0\n",
            "note_on channel=0 note=48 velocity=127 time=199\n",
            "note_off channel=0 note=48 velocity=127 time=192\n",
            "note_on channel=4 note=52 velocity=127 time=6\n",
            "note_off channel=4 note=52 velocity=127 time=192\n",
            "note_on channel=7 note=55 velocity=127 time=6\n",
            "note_off channel=7 note=55 velocity=127 time=192\n",
            "note_on channel=0 note=60 velocity=127 time=6\n",
            "note_off channel=0 note=72 velocity=127 time=530\n",
            "note_off channel=4 note=76 velocity=127 time=0\n",
            "note_on channel=4 note=76 velocity=127 time=66\n",
            "note_on channel=0 note=72 velocity=127 time=0\n",
            "note_off channel=0 note=72 velocity=127 time=192\n",
            "note_off channel=4 note=76 velocity=127 time=0\n",
            "note_off channel=0 note=60 velocity=127 time=4\n",
            "note_on channel=8 note=80 velocity=127 time=2\n",
            "note_on channel=5 note=77 velocity=127 time=0\n",
            "note_on channel=8 note=56 velocity=127 time=0\n",
            "note_off channel=5 note=77 velocity=127 time=594\n",
            "note_off channel=8 note=80 velocity=127 time=0\n",
            "note_on channel=8 note=80 velocity=127 time=2\n",
            "note_on channel=3 note=75 velocity=127 time=0\n",
            "note_off channel=8 note=56 velocity=127 time=190\n",
            "note_off channel=3 note=75 velocity=127 time=2\n",
            "note_off channel=8 note=80 velocity=127 time=0\n",
            "note_on channel=8 note=80 velocity=127 time=6\n",
            "note_on channel=1 note=73 velocity=127 time=0\n",
            "note_on channel=11 note=46 velocity=127 time=199\n",
            "note_off channel=11 note=46 velocity=127 time=192\n",
            "note_on channel=1 note=49 velocity=127 time=6\n",
            "note_off channel=1 note=49 velocity=127 time=192\n",
            "note_on channel=5 note=53 velocity=127 time=6\n",
            "note_off channel=5 note=53 velocity=127 time=192\n",
            "note_on channel=11 note=58 velocity=127 time=6\n",
            "note_off channel=8 note=80 velocity=127 time=530\n",
            "note_on channel=5 note=77 velocity=127 time=66\n",
            "note_off channel=5 note=77 velocity=127 time=192\n",
            "note_off channel=11 note=58 velocity=127 time=4\n",
            "note_on channel=11 note=82 velocity=127 time=2\n",
            "note_on channel=7 note=55 velocity=127 time=0\n",
            "note_off channel=11 note=82 velocity=127 time=594\n",
            "note_on channel=11 note=82 velocity=127 time=2\n",
            "note_off channel=7 note=55 velocity=127 time=190\n",
            "note_off channel=11 note=82 velocity=127 time=2\n",
            "note_on channel=11 note=82 velocity=127 time=6\n",
            "note_on channel=0 note=36 velocity=127 time=199\n",
            "note_off channel=0 note=36 velocity=127 time=192\n",
            "note_on channel=4 note=40 velocity=127 time=6\n",
            "note_off channel=4 note=40 velocity=127 time=192\n",
            "note_on channel=7 note=43 velocity=127 time=6\n",
            "note_off channel=7 note=43 velocity=127 time=192\n",
            "note_off channel=1 note=73 velocity=127 time=4\n",
            "note_on channel=0 note=72 velocity=127 time=2\n",
            "note_on channel=0 note=48 velocity=127 time=0\n",
            "note_off channel=11 note=82 velocity=127 time=530\n",
            "note_off channel=0 note=72 velocity=127 time=64\n",
            "note_on channel=4 note=76 velocity=127 time=2\n",
            "note_on channel=11 note=70 velocity=127 time=0\n",
            "note_off channel=11 note=70 velocity=127 time=192\n",
            "note_off channel=4 note=76 velocity=127 time=0\n",
            "note_off channel=0 note=48 velocity=127 time=4\n",
            "note_on channel=5 note=77 velocity=127 time=2\n",
            "note_on channel=8 note=68 velocity=127 time=0\n",
            "note_on channel=1 note=49 velocity=127 time=0\n",
            "note_off channel=8 note=68 velocity=127 time=594\n",
            "note_off channel=5 note=77 velocity=127 time=0\n",
            "note_on channel=4 note=76 velocity=127 time=2\n",
            "note_on channel=7 note=67 velocity=127 time=0\n",
            "note_off channel=7 note=67 velocity=127 time=192\n",
            "note_off channel=4 note=76 velocity=127 time=0\n",
            "note_on channel=5 note=77 velocity=127 time=6\n",
            "note_on channel=8 note=68 velocity=127 time=0\n",
            "note_off channel=1 note=49 velocity=127 time=95\n",
            "note_on channel=1 note=49 velocity=127 time=103\n",
            "note_off channel=1 note=49 velocity=127 time=194\n",
            "note_on channel=0 note=48 velocity=127 time=4\n",
            "note_off channel=0 note=48 velocity=127 time=192\n",
            "note_off channel=8 note=68 velocity=127 time=4\n",
            "note_off channel=5 note=77 velocity=127 time=0\n",
            "note_on channel=7 note=79 velocity=127 time=2\n",
            "note_on channel=11 note=70 velocity=127 time=0\n",
            "note_on channel=11 note=46 velocity=127 time=0\n",
            "note_off channel=11 note=46 velocity=127 time=192\n",
            "note_off channel=11 note=70 velocity=127 time=0\n",
            "note_off channel=7 note=79 velocity=127 time=0\n",
            "note_on channel=5 note=77 velocity=127 time=6\n",
            "note_on channel=8 note=68 velocity=127 time=0\n",
            "note_on channel=0 note=48 velocity=127 time=0\n",
            "note_off channel=0 note=48 velocity=127 time=792\n",
            "note_off channel=8 note=68 velocity=127 time=0\n",
            "note_off channel=5 note=77 velocity=127 time=0\n",
            "note_on channel=4 note=76 velocity=127 time=2\n",
            "note_on channel=7 note=67 velocity=127 time=0\n",
            "note_on channel=0 note=36 velocity=127 time=0\n",
            "note_off channel=7 note=67 velocity=127 time=594\n",
            "note_off channel=4 note=76 velocity=127 time=0\n",
            "note_on channel=5 note=77 velocity=127 time=2\n",
            "note_on channel=8 note=68 velocity=127 time=0\n",
            "note_off channel=0 note=36 velocity=127 time=190\n",
            "note_off channel=8 note=68 velocity=127 time=2\n",
            "note_off channel=5 note=77 velocity=127 time=0\n",
            "note_on channel=5 note=77 velocity=127 time=6\n",
            "note_on channel=8 note=68 velocity=127 time=0\n",
            "note_on channel=5 note=41 velocity=127 time=199\n",
            "note_off channel=5 note=41 velocity=127 time=192\n",
            "note_on channel=8 note=44 velocity=127 time=6\n",
            "note_off channel=8 note=44 velocity=127 time=192\n",
            "note_on channel=0 note=48 velocity=127 time=6\n",
            "note_off channel=5 note=77 velocity=127 time=190\n",
            "note_off channel=0 note=48 velocity=127 time=2\n",
            "note_on channel=5 note=53 velocity=127 time=6\n",
            "note_off channel=8 note=68 velocity=127 time=530\n",
            "note_on channel=0 note=72 velocity=127 time=66\n",
            "note_off channel=0 note=72 velocity=127 time=192\n",
            "note_off channel=5 note=53 velocity=127 time=4\n",
            "note_on channel=5 note=77 velocity=127 time=2\n",
            "note_on channel=8 note=44 velocity=127 time=0\n",
            "note_off channel=5 note=77 velocity=127 time=594\n",
            "note_on channel=3 note=75 velocity=127 time=2\n",
            "note_off channel=8 note=44 velocity=127 time=190\n",
            "note_off channel=3 note=75 velocity=127 time=2\n",
            "note_on channel=1 note=73 velocity=127 time=6\n",
            "note_on channel=11 note=46 velocity=127 time=199\n",
            "note_off channel=11 note=46 velocity=127 time=192\n",
            "note_on channel=1 note=49 velocity=127 time=6\n",
            "note_off channel=1 note=49 velocity=127 time=192\n",
            "note_on channel=5 note=53 velocity=127 time=6\n",
            "note_off channel=5 note=53 velocity=127 time=192\n",
            "note_on channel=11 note=58 velocity=127 time=6\n",
            "note_on channel=5 note=77 velocity=127 time=596\n",
            "note_off channel=5 note=77 velocity=127 time=192\n",
            "note_off channel=11 note=58 velocity=127 time=4\n",
            "note_on channel=11 note=82 velocity=127 time=2\n",
            "note_on channel=1 note=49 velocity=127 time=0\n",
            "note_off channel=11 note=82 velocity=127 time=594\n",
            "note_on channel=8 note=80 velocity=127 time=2\n",
            "note_off channel=1 note=49 velocity=127 time=190\n",
            "note_off channel=8 note=80 velocity=127 time=2\n",
            "note_on channel=7 note=79 velocity=127 time=6\n",
            "note_on channel=3 note=51 velocity=127 time=199\n",
            "note_off channel=3 note=51 velocity=127 time=192\n",
            "note_on channel=7 note=55 velocity=127 time=6\n",
            "note_off channel=7 note=55 velocity=127 time=192\n",
            "note_on channel=11 note=58 velocity=127 time=6\n",
            "note_off channel=11 note=58 velocity=127 time=192\n",
            "note_on channel=3 note=63 velocity=127 time=6\n",
            "note_off channel=7 note=79 velocity=127 time=530\n",
            "note_off channel=1 note=73 velocity=127 time=64\n",
            "note_on channel=8 note=80 velocity=127 time=2\n",
            "note_on channel=0 note=72 velocity=127 time=0\n",
            "note_off channel=3 note=63 velocity=127 time=190\n",
            "note_off channel=0 note=72 velocity=127 time=2\n",
            "note_off channel=8 note=80 velocity=127 time=0\n",
            "note_on channel=1 note=73 velocity=127 time=6\n",
            "note_on channel=11 note=70 velocity=127 time=0\n",
            "note_on channel=7 note=55 velocity=127 time=199\n",
            "note_off channel=7 note=55 velocity=127 time=192\n",
            "note_on channel=5 note=53 velocity=127 time=6\n",
            "note_off channel=5 note=53 velocity=127 time=192\n",
            "note_on channel=3 note=51 velocity=127 time=6\n",
            "note_off channel=3 note=51 velocity=127 time=192\n",
            "note_on channel=8 note=56 velocity=127 time=6\n",
            "note_off channel=8 note=56 velocity=127 time=192\n",
            "note_on channel=3 note=51 velocity=127 time=6\n",
            "note_off channel=3 note=51 velocity=127 time=192\n",
            "note_on channel=5 note=53 velocity=127 time=6\n",
            "note_off channel=11 note=70 velocity=127 time=132\n",
            "note_off channel=1 note=73 velocity=127 time=0\n",
            "note_off channel=5 note=53 velocity=127 time=60\n",
            "note_on channel=0 note=72 velocity=127 time=6\n",
            "note_on channel=8 note=68 velocity=127 time=0\n",
            "note_on channel=1 note=49 velocity=127 time=0\n",
            "note_off channel=1 note=49 velocity=127 time=192\n",
            "note_off channel=8 note=68 velocity=127 time=0\n",
            "note_off channel=0 note=72 velocity=127 time=0\n",
            "note_on channel=0 note=72 velocity=127 time=6\n",
            "note_on channel=8 note=68 velocity=127 time=0\n",
            "note_on channel=3 note=51 velocity=127 time=0\n",
            "note_off channel=3 note=51 velocity=127 time=792\n",
            "note_off channel=8 note=68 velocity=127 time=0\n",
            "note_off channel=0 note=72 velocity=127 time=0\n",
            "note_on channel=11 note=70 velocity=127 time=2\n",
            "note_on channel=7 note=67 velocity=127 time=0\n",
            "note_on channel=3 note=39 velocity=127 time=0\n",
            "note_off channel=11 note=70 velocity=127 time=594\n",
            "note_on channel=8 note=68 velocity=127 time=2\n",
            "note_off channel=8 note=68 velocity=127 time=186\n",
            "note_off channel=3 note=39 velocity=127 time=4\n",
            "note_off channel=7 note=67 velocity=127 time=6\n",
            "note_on channel=8 note=68 velocity=127 time=2\n",
            "note_on channel=8 note=44 velocity=127 time=199\n",
            "note_off channel=8 note=44 velocity=127 time=192\n",
            "note_on channel=0 note=48 velocity=127 time=6\n",
            "note_off channel=0 note=48 velocity=127 time=192\n",
            "note_on channel=3 note=51 velocity=127 time=6\n",
            "note_off channel=8 note=68 velocity=127 time=190\n",
            "note_off channel=3 note=51 velocity=127 time=2\n",
            "note_on channel=8 note=56 velocity=127 time=6\n",
            "note_on channel=3 note=63 velocity=127 time=596\n",
            "note_off channel=3 note=63 velocity=127 time=192\n",
            "note_off channel=8 note=56 velocity=127 time=4\n",
            "note_on channel=8 note=68 velocity=127 time=2\n",
            "note_on channel=5 note=53 velocity=127 time=0\n",
            "note_off channel=8 note=68 velocity=127 time=594\n",
            "note_on channel=11 note=70 velocity=127 time=2\n",
            "note_off channel=5 note=53 velocity=127 time=190\n",
            "note_off channel=11 note=70 velocity=127 time=2\n",
            "note_on channel=7 note=67 velocity=127 time=6\n",
            "note_on channel=3 note=39 velocity=127 time=199\n",
            "note_off channel=3 note=39 velocity=127 time=192\n",
            "note_on channel=7 note=43 velocity=127 time=6\n",
            "note_off channel=7 note=43 velocity=127 time=192\n",
            "note_on channel=11 note=46 velocity=127 time=6\n",
            "note_off channel=11 note=46 velocity=127 time=192\n",
            "note_on channel=3 note=51 velocity=127 time=6\n",
            "note_off channel=7 note=67 velocity=127 time=530\n",
            "note_on channel=5 note=65 velocity=127 time=66\n",
            "note_on channel=11 note=58 velocity=127 time=0\n",
            "note_off channel=11 note=58 velocity=127 time=192\n",
            "note_off channel=5 note=65 velocity=127 time=0\n",
            "note_off channel=3 note=51 velocity=127 time=4\n",
            "note_on channel=7 note=67 velocity=127 time=2\n",
            "note_on channel=3 note=63 velocity=127 time=0\n",
            "note_on channel=0 note=48 velocity=127 time=0\n",
            "note_off channel=3 note=63 velocity=127 time=594\n",
            "note_off channel=7 note=67 velocity=127 time=0\n",
            "note_on channel=8 note=68 velocity=127 time=2\n",
            "note_on channel=5 note=65 velocity=127 time=0\n",
            "note_off channel=0 note=48 velocity=127 time=190\n",
            "note_off channel=5 note=65 velocity=127 time=2\n",
            "note_off channel=8 note=68 velocity=127 time=0\n",
            "note_on channel=11 note=70 velocity=127 time=6\n",
            "note_on channel=2 note=62 velocity=127 time=0\n",
            "note_on channel=11 note=46 velocity=127 time=199\n",
            "note_off channel=11 note=46 velocity=127 time=192\n",
            "note_on channel=2 note=50 velocity=127 time=6\n",
            "note_off channel=2 note=50 velocity=127 time=192\n",
            "note_on channel=5 note=53 velocity=127 time=6\n",
            "note_off channel=5 note=53 velocity=127 time=192\n",
            "note_on channel=11 note=58 velocity=127 time=6\n",
            "note_off channel=2 note=62 velocity=127 time=530\n",
            "note_off channel=11 note=70 velocity=127 time=0\n",
            "note_on channel=5 note=65 velocity=127 time=66\n",
            "note_on channel=0 note=60 velocity=127 time=0\n",
            "note_off channel=0 note=60 velocity=127 time=192\n",
            "note_off channel=5 note=65 velocity=127 time=0\n",
            "note_off channel=11 note=58 velocity=127 time=4\n",
            "note_on channel=11 note=70 velocity=127 time=2\n",
            "note_on channel=2 note=62 velocity=127 time=0\n",
            "note_on channel=7 note=55 velocity=127 time=0\n",
            "note_off channel=2 note=62 velocity=127 time=594\n",
            "note_off channel=11 note=70 velocity=127 time=0\n",
            "note_on channel=0 note=72 velocity=127 time=2\n",
            "note_on channel=3 note=63 velocity=127 time=0\n",
            "note_off channel=7 note=55 velocity=127 time=190\n",
            "note_off channel=3 note=63 velocity=127 time=2\n",
            "note_off channel=0 note=72 velocity=127 time=0\n",
            "note_on channel=8 note=68 velocity=127 time=6\n",
            "note_on channel=0 note=60 velocity=127 time=0\n",
            "note_on channel=8 note=44 velocity=127 time=199\n",
            "note_off channel=8 note=44 velocity=127 time=192\n",
            "note_on channel=0 note=48 velocity=127 time=6\n",
            "note_off channel=0 note=48 velocity=127 time=192\n",
            "note_on channel=3 note=51 velocity=127 time=6\n",
            "note_off channel=3 note=51 velocity=127 time=192\n",
            "note_on channel=8 note=56 velocity=127 time=6\n",
            "note_off channel=0 note=60 velocity=127 time=530\n",
            "note_off channel=8 note=68 velocity=127 time=0\n",
            "note_on channel=7 note=67 velocity=127 time=66\n",
            "note_on channel=0 note=60 velocity=127 time=0\n",
            "note_off channel=0 note=60 velocity=127 time=192\n",
            "note_off channel=7 note=67 velocity=127 time=0\n",
            "note_off channel=8 note=56 velocity=127 time=4\n",
            "note_on channel=8 note=68 velocity=127 time=2\n",
            "note_on channel=5 note=65 velocity=127 time=0\n",
            "note_on channel=5 note=53 velocity=127 time=0\n",
            "note_off channel=5 note=65 velocity=127 time=594\n",
            "note_off channel=8 note=68 velocity=127 time=0\n",
            "note_on channel=11 note=70 velocity=127 time=2\n",
            "note_on channel=7 note=67 velocity=127 time=0\n",
            "note_off channel=5 note=53 velocity=127 time=190\n",
            "note_off channel=7 note=67 velocity=127 time=2\n",
            "note_off channel=11 note=70 velocity=127 time=0\n",
            "note_on channel=7 note=67 velocity=127 time=6\n",
            "note_on channel=3 note=63 velocity=127 time=0\n",
            "note_on channel=0 note=48 velocity=127 time=199\n",
            "note_off channel=0 note=48 velocity=127 time=192\n",
            "note_on channel=3 note=51 velocity=127 time=6\n",
            "note_off channel=3 note=51 velocity=127 time=192\n",
            "note_on channel=7 note=55 velocity=127 time=6\n",
            "note_off channel=7 note=55 velocity=127 time=192\n",
            "note_on channel=0 note=60 velocity=127 time=6\n",
            "note_off channel=3 note=63 velocity=127 time=530\n",
            "note_off channel=7 note=67 velocity=127 time=0\n",
            "note_on channel=7 note=67 velocity=127 time=66\n",
            "note_on channel=2 note=62 velocity=127 time=0\n",
            "note_off channel=2 note=62 velocity=127 time=192\n",
            "note_off channel=7 note=67 velocity=127 time=0\n",
            "note_off channel=0 note=60 velocity=127 time=4\n",
            "note_on channel=0 note=72 velocity=127 time=2\n",
            "note_on channel=3 note=63 velocity=127 time=0\n",
            "note_on channel=10 note=57 velocity=127 time=0\n",
            "note_off channel=3 note=63 velocity=127 time=594\n",
            "note_off channel=0 note=72 velocity=127 time=0\n",
            "note_on channel=0 note=72 velocity=127 time=2\n",
            "note_on channel=5 note=65 velocity=127 time=0\n",
            "note_off channel=10 note=57 velocity=127 time=190\n",
            "note_off channel=5 note=65 velocity=127 time=2\n",
            "note_off channel=0 note=72 velocity=127 time=0\n",
            "note_on channel=0 note=72 velocity=127 time=6\n",
            "note_on channel=2 note=62 velocity=127 time=0\n",
            "note_on channel=11 note=46 velocity=127 time=199\n",
            "note_off channel=11 note=46 velocity=127 time=192\n",
            "note_on channel=2 note=50 velocity=127 time=6\n",
            "note_off channel=2 note=50 velocity=127 time=192\n",
            "note_on channel=5 note=53 velocity=127 time=6\n",
            "note_off channel=5 note=53 velocity=127 time=192\n",
            "note_off channel=0 note=72 velocity=127 time=2\n",
            "note_on channel=11 note=70 velocity=127 time=4\n",
            "note_on channel=11 note=58 velocity=127 time=0\n",
            "note_off channel=2 note=62 velocity=127 time=530\n",
            "note_on channel=2 note=62 velocity=127 time=66\n",
            "note_off channel=2 note=62 velocity=127 time=192\n",
            "note_off channel=11 note=58 velocity=127 time=4\n",
            "note_on channel=7 note=67 velocity=127 time=2\n",
            "note_on channel=3 note=51 velocity=127 time=0\n",
            "note_off channel=7 note=67 velocity=127 time=594\n",
            "note_on channel=7 note=67 velocity=127 time=2\n",
            "note_off channel=3 note=51 velocity=127 time=190\n",
            "note_off channel=7 note=67 velocity=127 time=2\n",
            "note_on channel=0 note=60 velocity=127 time=6\n",
            "note_on channel=8 note=44 velocity=127 time=199\n",
            "note_off channel=8 note=44 velocity=127 time=192\n",
            "note_on channel=0 note=48 velocity=127 time=6\n",
            "note_off channel=0 note=48 velocity=127 time=192\n",
            "note_on channel=3 note=51 velocity=127 time=6\n",
            "note_off channel=3 note=51 velocity=127 time=192\n",
            "note_off channel=11 note=70 velocity=127 time=4\n",
            "note_on channel=8 note=68 velocity=127 time=2\n",
            "note_on channel=8 note=56 velocity=127 time=0\n",
            "note_off channel=0 note=60 velocity=127 time=530\n",
            "note_on channel=0 note=60 velocity=127 time=66\n",
            "note_off channel=0 note=60 velocity=127 time=192\n",
            "note_off channel=8 note=56 velocity=127 time=4\n",
            "note_on channel=5 note=65 velocity=127 time=2\n",
            "note_on channel=2 note=50 velocity=127 time=0\n",
            "note_off channel=5 note=65 velocity=127 time=594\n",
            "note_on channel=5 note=65 velocity=127 time=2\n",
            "note_off channel=2 note=50 velocity=127 time=190\n",
            "note_off channel=5 note=65 velocity=127 time=2\n",
            "note_on channel=11 note=58 velocity=127 time=6\n",
            "note_on channel=7 note=43 velocity=127 time=199\n",
            "note_off channel=7 note=43 velocity=127 time=192\n",
            "note_on channel=11 note=46 velocity=127 time=6\n",
            "note_off channel=11 note=46 velocity=127 time=192\n",
            "note_on channel=2 note=50 velocity=127 time=6\n",
            "note_off channel=2 note=50 velocity=127 time=192\n",
            "note_off channel=11 note=58 velocity=127 time=2\n",
            "note_on channel=3 note=63 velocity=127 time=4\n",
            "note_on channel=7 note=55 velocity=127 time=0\n",
            "note_off channel=8 note=68 velocity=127 time=594\n",
            "note_on channel=7 note=67 velocity=127 time=2\n",
            "note_off channel=7 note=67 velocity=127 time=192\n",
            "note_off channel=7 note=55 velocity=127 time=4\n",
            "note_on channel=0 note=72 velocity=127 time=2\n",
            "note_on channel=8 note=56 velocity=127 time=0\n",
            "note_off channel=0 note=72 velocity=127 time=594\n",
            "note_on channel=0 note=72 velocity=127 time=2\n",
            "note_off channel=8 note=56 velocity=127 time=190\n",
            "note_off channel=0 note=72 velocity=127 time=2\n",
            "note_on channel=5 note=65 velocity=127 time=6\n",
            "note_on channel=11 note=46 velocity=127 time=202\n",
            "note_off channel=11 note=46 velocity=127 time=196\n",
            "note_on channel=5 note=53 velocity=127 time=6\n",
            "note_off channel=5 note=53 velocity=127 time=196\n",
            "note_on channel=8 note=56 velocity=127 time=6\n",
            "note_off channel=8 note=56 velocity=127 time=196\n",
            "note_off channel=3 note=63 velocity=127 time=4\n",
            "note_on channel=2 note=62 velocity=127 time=2\n",
            "note_on channel=11 note=58 velocity=127 time=0\n",
            "note_off channel=5 note=65 velocity=127 time=539\n",
            "note_on channel=5 note=65 velocity=127 time=67\n",
            "note_off channel=5 note=65 velocity=127 time=196\n",
            "note_off channel=11 note=58 velocity=127 time=4\n",
            "note_on channel=11 note=70 velocity=127 time=2\n",
            "note_on channel=11 note=46 velocity=127 time=0\n",
            "note_on channel=0 note=72 velocity=127 time=632\n",
            "note_off channel=11 note=70 velocity=127 time=30\n",
            "note_off channel=11 note=46 velocity=127 time=222\n",
            "note_off channel=2 note=62 velocity=127 time=0\n",
            "note_off channel=0 note=72 velocity=127 time=60\n",
            "note_on channel=7 note=67 velocity=127 time=16\n",
            "note_on channel=3 note=63 velocity=127 time=0\n",
            "note_on channel=3 note=39 velocity=127 time=0\n",
            "note_off channel=3 note=39 velocity=127 time=2654\n",
            "note_off channel=3 note=63 velocity=127 time=0\n",
            "note_off channel=7 note=67 velocity=127 time=0\n",
            "MetaMessage('end_of_track', time=4435)\n",
            "Track 2: MIDI\n",
            "MetaMessage('track_name', name='MIDI', time=0)\n",
            "MetaMessage('end_of_track', time=1536)\n"
          ]
        }
      ]
    },
    {
      "cell_type": "code",
      "source": [
        "#@title Tokenize\n"
      ],
      "metadata": {
        "id": "xonwrk3Bo314"
      },
      "execution_count": null,
      "outputs": []
    }
  ]
}